<svg version="1.1" viewBox="0.0 0.0 1989.1968503937007 1764.1417322834645" fill="none" stroke="none" stroke-linecap="square" stroke-miterlimit="10" xmlns:xlink="http://www.w3.org/1999/xlink" xmlns="http://www.w3.org/2000/svg"><clipPath id="p.0"><path d="m0 0l1989.1969 0l0 1764.1417l-1989.1969 0l0 -1764.1417z" clip-rule="nonzero"/></clipPath><g clip-path="url(#p.0)"><path fill="#000000" fill-opacity="0.0" d="m0 0l1989.1969 0l0 1764.1417l-1989.1969 0z" fill-rule="evenodd"/><path fill="#ff0000" d="m434.65475 405.5289l378.12003 0l0 65.32031l-378.12003 0z" fill-rule="evenodd"/><path stroke="#ff0000" stroke-width="1.0" stroke-linejoin="round" stroke-linecap="butt" d="m434.65475 405.5289l378.12003 0l0 65.32031l-378.12003 0z" fill-rule="evenodd"/><path fill="#ff0000" d="m812.7748 405.56805l44.74066 32.62094l-44.74066 32.62094z" fill-rule="evenodd"/><path stroke="#ff0000" stroke-width="1.0" stroke-linejoin="round" stroke-linecap="butt" d="m812.7748 405.56805l44.74066 32.62094l-44.74066 32.62094z" fill-rule="evenodd"/><path fill="#ff0000" d="m434.65475 470.80994l-44.74063 -32.62094l44.74063 -32.62094z" fill-rule="evenodd"/><path stroke="#ff0000" stroke-width="1.0" stroke-linejoin="round" stroke-linecap="butt" d="m434.65475 470.80994l-44.74063 -32.62094l44.74063 -32.62094z" fill-rule="evenodd"/><path fill="#ff0000" d="m786.91077 1331.0132l0 0c0 -17.960205 15.5043335 -32.519775 34.629944 -32.519775l0 0c9.184387 0 17.992676 3.4262695 24.487 9.524902c6.494385 6.0985107 10.142883 14.370117 10.142883 22.994873l0 0c0 17.960083 -15.5043335 32.519653 -34.629883 32.519653l0 0c-19.12561 0 -34.629944 -14.55957 -34.629944 -32.519653z" fill-rule="evenodd"/><path stroke="#ff0000" stroke-width="1.0" stroke-linejoin="round" stroke-linecap="butt" d="m786.91077 1331.0132l0 0c0 -17.960205 15.5043335 -32.519775 34.629944 -32.519775l0 0c9.184387 0 17.992676 3.4262695 24.487 9.524902c6.494385 6.0985107 10.142883 14.370117 10.142883 22.994873l0 0c0 17.960083 -15.5043335 32.519653 -34.629883 32.519653l0 0c-19.12561 0 -34.629944 -14.55957 -34.629944 -32.519653z" fill-rule="evenodd"/><path fill="#ff0000" d="m362.5599 850.1433l378.1201 0l0 65.32031l-378.1201 0z" fill-rule="evenodd"/><path stroke="#ff0000" stroke-width="1.0" stroke-linejoin="round" stroke-linecap="butt" d="m362.5599 850.1433l378.1201 0l0 65.32031l-378.1201 0z" fill-rule="evenodd"/><path fill="#ff0000" d="m740.68 850.18243l44.7406 32.62097l-44.7406 32.62097z" fill-rule="evenodd"/><path stroke="#ff0000" stroke-width="1.0" stroke-linejoin="round" stroke-linecap="butt" d="m740.68 850.18243l44.7406 32.62097l-44.7406 32.62097z" fill-rule="evenodd"/><path fill="#ff0000" d="m362.5599 915.4244l-44.74063 -32.62097l44.74063 -32.62097z" fill-rule="evenodd"/><path stroke="#ff0000" stroke-width="1.0" stroke-linejoin="round" stroke-linecap="butt" d="m362.5599 915.4244l-44.74063 -32.62097l44.74063 -32.62097z" fill-rule="evenodd"/><path fill="#ff0000" d="m407.1532 491.1331l-55.366547 352.75388l-64.25775 -10.08783l55.366547 -352.75388z" fill-rule="evenodd"/><path stroke="#ff0000" stroke-width="1.0" stroke-linejoin="round" stroke-linecap="butt" d="m407.1532 491.1331l-55.366547 352.75388l-64.25775 -10.08783l55.366547 -352.75388z" fill-rule="evenodd"/><path fill="#ff0000" d="m351.74814 843.8809l-38.64148 36.701355l-25.539124 -46.77704z" fill-rule="evenodd"/><path stroke="#ff0000" stroke-width="1.0" stroke-linejoin="round" stroke-linecap="butt" d="m351.74814 843.8809l-38.64148 36.701355l-25.539124 -46.77704z" fill-rule="evenodd"/><path fill="#ff0000" d="m342.93408 481.05133l38.64148 -36.701355l25.539124 46.77707z" fill-rule="evenodd"/><path stroke="#ff0000" stroke-width="1.0" stroke-linejoin="round" stroke-linecap="butt" d="m342.93408 481.05133l38.64148 -36.701355l25.539124 46.77707z" fill-rule="evenodd"/><path fill="#ff0000" d="m881.35266 491.1331l-55.366516 352.75388l-64.25775 -10.08783l55.366516 -352.75388z" fill-rule="evenodd"/><path stroke="#ff0000" stroke-width="1.0" stroke-linejoin="round" stroke-linecap="butt" d="m881.35266 491.1331l-55.366516 352.75388l-64.25775 -10.08783l55.366516 -352.75388z" fill-rule="evenodd"/><path fill="#ff0000" d="m825.94763 843.8809l-38.64148 36.701355l-25.539124 -46.77704z" fill-rule="evenodd"/><path stroke="#ff0000" stroke-width="1.0" stroke-linejoin="round" stroke-linecap="butt" d="m825.94763 843.8809l-38.64148 36.701355l-25.539124 -46.77704z" fill-rule="evenodd"/><path fill="#ff0000" d="m817.13354 481.05133l38.64148 -36.701355l25.539124 46.77707z" fill-rule="evenodd"/><path stroke="#ff0000" stroke-width="1.0" stroke-linejoin="round" stroke-linecap="butt" d="m817.13354 481.05133l38.64148 -36.701355l25.539124 46.77707z" fill-rule="evenodd"/><path fill="#ff0000" d="m286.69064 1298.3529l378.12003 0l0 65.32031l-378.12003 0z" fill-rule="evenodd"/><path stroke="#ff0000" stroke-width="1.0" stroke-linejoin="round" stroke-linecap="butt" d="m286.69064 1298.3529l378.12003 0l0 65.32031l-378.12003 0z" fill-rule="evenodd"/><path fill="#ff0000" d="m664.81067 1298.3921l44.74066 32.62097l-44.74066 32.62097z" fill-rule="evenodd"/><path stroke="#ff0000" stroke-width="1.0" stroke-linejoin="round" stroke-linecap="butt" d="m664.81067 1298.3921l44.74066 32.62097l-44.74066 32.62097z" fill-rule="evenodd"/><path fill="#ff0000" d="m286.69064 1363.634l-44.74063 -32.62097l44.74063 -32.62097z" fill-rule="evenodd"/><path stroke="#ff0000" stroke-width="1.0" stroke-linejoin="round" stroke-linecap="butt" d="m286.69064 1363.634l-44.74063 -32.62097l44.74063 -32.62097z" fill-rule="evenodd"/><path fill="#ff0000" d="m335.50754 937.4533l-55.366577 352.75385l-64.25774 -10.087769l55.36656 -352.7539z" fill-rule="evenodd"/><path stroke="#ff0000" stroke-width="1.0" stroke-linejoin="round" stroke-linecap="butt" d="m335.50754 937.4533l-55.366577 352.75385l-64.25774 -10.087769l55.36656 -352.7539z" fill-rule="evenodd"/><path fill="#ff0000" d="m280.10248 1290.2012l-38.641495 36.701294l-25.539124 -46.776978z" fill-rule="evenodd"/><path stroke="#ff0000" stroke-width="1.0" stroke-linejoin="round" stroke-linecap="butt" d="m280.10248 1290.2012l-38.641495 36.701294l-25.539124 -46.776978z" fill-rule="evenodd"/><path fill="#ff0000" d="m271.28842 927.3715l38.64148 -36.701294l25.539124 46.77704z" fill-rule="evenodd"/><path stroke="#ff0000" stroke-width="1.0" stroke-linejoin="round" stroke-linecap="butt" d="m271.28842 927.3715l38.64148 -36.701294l25.539124 46.77704z" fill-rule="evenodd"/><path fill="#ff0000" d="m809.707 937.4533l-55.366516 352.75385l-64.25775 -10.087769l55.366516 -352.7539z" fill-rule="evenodd"/><path stroke="#ff0000" stroke-width="1.0" stroke-linejoin="round" stroke-linecap="butt" d="m809.707 937.4533l-55.366516 352.75385l-64.25775 -10.087769l55.366516 -352.7539z" fill-rule="evenodd"/><path fill="#ff0000" d="m754.30194 1290.2012l-38.64148 36.701294l-25.539124 -46.776978z" fill-rule="evenodd"/><path stroke="#ff0000" stroke-width="1.0" stroke-linejoin="round" stroke-linecap="butt" d="m754.30194 1290.2012l-38.64148 36.701294l-25.539124 -46.776978z" fill-rule="evenodd"/><path fill="#ff0000" d="m745.48785 927.3715l38.64154 -36.701294l25.539124 46.77704z" fill-rule="evenodd"/><path stroke="#ff0000" stroke-width="1.0" stroke-linejoin="round" stroke-linecap="butt" d="m745.48785 927.3715l38.64154 -36.701294l25.539124 46.77704z" fill-rule="evenodd"/><path fill="#ff0000" d="m1200.7545 405.5289l378.12 0l0 65.32031l-378.12 0z" fill-rule="evenodd"/><path stroke="#ff0000" stroke-width="1.0" stroke-linejoin="round" stroke-linecap="butt" d="m1200.7545 405.5289l378.12 0l0 65.32031l-378.12 0z" fill-rule="evenodd"/><path fill="#ff0000" d="m1578.8745 405.56805l44.7406 32.62094l-44.7406 32.62094z" fill-rule="evenodd"/><path stroke="#ff0000" stroke-width="1.0" stroke-linejoin="round" stroke-linecap="butt" d="m1578.8745 405.56805l44.7406 32.62094l-44.7406 32.62094z" fill-rule="evenodd"/><path fill="#ff0000" d="m1200.7545 470.80994l-44.740723 -32.62094l44.740723 -32.62094z" fill-rule="evenodd"/><path stroke="#ff0000" stroke-width="1.0" stroke-linejoin="round" stroke-linecap="butt" d="m1200.7545 470.80994l-44.740723 -32.62094l44.740723 -32.62094z" fill-rule="evenodd"/><path fill="#ff0000" d="m1553.0105 1331.0132l0 0c0 -17.960205 15.504395 -32.519775 34.629883 -32.519775l0 0c9.184448 0 17.992676 3.4262695 24.48706 9.524902c6.494385 6.0985107 10.142944 14.370117 10.142944 22.994873l0 0c0 17.960083 -15.504395 32.519653 -34.630005 32.519653l0 0c-19.125488 0 -34.629883 -14.55957 -34.629883 -32.519653z" fill-rule="evenodd"/><path stroke="#ff0000" stroke-width="1.0" stroke-linejoin="round" stroke-linecap="butt" d="m1553.0105 1331.0132l0 0c0 -17.960205 15.504395 -32.519775 34.629883 -32.519775l0 0c9.184448 0 17.992676 3.4262695 24.48706 9.524902c6.494385 6.0985107 10.142944 14.370117 10.142944 22.994873l0 0c0 17.960083 -15.504395 32.519653 -34.630005 32.519653l0 0c-19.125488 0 -34.629883 -14.55957 -34.629883 -32.519653z" fill-rule="evenodd"/><path fill="#ff0000" d="m1128.6597 850.1433l378.12 0l0 65.32031l-378.12 0z" fill-rule="evenodd"/><path stroke="#ff0000" stroke-width="1.0" stroke-linejoin="round" stroke-linecap="butt" d="m1128.6597 850.1433l378.12 0l0 65.32031l-378.12 0z" fill-rule="evenodd"/><path fill="#ff0000" d="m1506.7797 850.18243l44.740723 32.62097l-44.740723 32.62097z" fill-rule="evenodd"/><path stroke="#ff0000" stroke-width="1.0" stroke-linejoin="round" stroke-linecap="butt" d="m1506.7797 850.18243l44.740723 32.62097l-44.740723 32.62097z" fill-rule="evenodd"/><path fill="#ff0000" d="m1128.6597 915.4244l-44.7406 -32.62097l44.7406 -32.62097z" fill-rule="evenodd"/><path stroke="#ff0000" stroke-width="1.0" stroke-linejoin="round" stroke-linecap="butt" d="m1128.6597 915.4244l-44.7406 -32.62097l44.7406 -32.62097z" fill-rule="evenodd"/><path fill="#ff0000" d="m1173.2529 491.1331l-55.366577 352.75388l-64.25769 -10.08783l55.366577 -352.75388z" fill-rule="evenodd"/><path stroke="#ff0000" stroke-width="1.0" stroke-linejoin="round" stroke-linecap="butt" d="m1173.2529 491.1331l-55.366577 352.75388l-64.25769 -10.08783l55.366577 -352.75388z" fill-rule="evenodd"/><path fill="#ff0000" d="m1117.8479 843.8809l-38.64148 36.701355l-25.539185 -46.77704z" fill-rule="evenodd"/><path stroke="#ff0000" stroke-width="1.0" stroke-linejoin="round" stroke-linecap="butt" d="m1117.8479 843.8809l-38.64148 36.701355l-25.539185 -46.77704z" fill-rule="evenodd"/><path fill="#ff0000" d="m1109.0338 481.05133l38.64148 -36.701355l25.539185 46.77707z" fill-rule="evenodd"/><path stroke="#ff0000" stroke-width="1.0" stroke-linejoin="round" stroke-linecap="butt" d="m1109.0338 481.05133l38.64148 -36.701355l25.539185 46.77707z" fill-rule="evenodd"/><path fill="#ff0000" d="m1647.4524 491.1331l-55.366577 352.75388l-64.25769 -10.08783l55.366577 -352.75388z" fill-rule="evenodd"/><path stroke="#ff0000" stroke-width="1.0" stroke-linejoin="round" stroke-linecap="butt" d="m1647.4524 491.1331l-55.366577 352.75388l-64.25769 -10.08783l55.366577 -352.75388z" fill-rule="evenodd"/><path fill="#ff0000" d="m1592.0474 843.8809l-38.64148 36.701355l-25.539185 -46.77704z" fill-rule="evenodd"/><path stroke="#ff0000" stroke-width="1.0" stroke-linejoin="round" stroke-linecap="butt" d="m1592.0474 843.8809l-38.64148 36.701355l-25.539185 -46.77704z" fill-rule="evenodd"/><path fill="#ff0000" d="m1583.2333 481.05133l38.64148 -36.701355l25.539185 46.77707z" fill-rule="evenodd"/><path stroke="#ff0000" stroke-width="1.0" stroke-linejoin="round" stroke-linecap="butt" d="m1583.2333 481.05133l38.64148 -36.701355l25.539185 46.77707z" fill-rule="evenodd"/><path fill="#ff0000" d="m1052.7904 1298.3529l378.12 0l0 65.32031l-378.12 0z" fill-rule="evenodd"/><path stroke="#ff0000" stroke-width="1.0" stroke-linejoin="round" stroke-linecap="butt" d="m1052.7904 1298.3529l378.12 0l0 65.32031l-378.12 0z" fill-rule="evenodd"/><path fill="#ff0000" d="m1430.9104 1298.3921l44.7406 32.62097l-44.7406 32.62097z" fill-rule="evenodd"/><path stroke="#ff0000" stroke-width="1.0" stroke-linejoin="round" stroke-linecap="butt" d="m1430.9104 1298.3921l44.7406 32.62097l-44.7406 32.62097z" fill-rule="evenodd"/><path fill="#ff0000" d="m1052.7904 1363.634l-44.74066 -32.62097l44.74066 -32.62097z" fill-rule="evenodd"/><path stroke="#ff0000" stroke-width="1.0" stroke-linejoin="round" stroke-linecap="butt" d="m1052.7904 1363.634l-44.74066 -32.62097l44.74066 -32.62097z" fill-rule="evenodd"/><path fill="#ff0000" d="m1101.6073 937.4533l-55.366577 352.75385l-64.25775 -10.087769l55.366516 -352.7539z" fill-rule="evenodd"/><path stroke="#ff0000" stroke-width="1.0" stroke-linejoin="round" stroke-linecap="butt" d="m1101.6073 937.4533l-55.366577 352.75385l-64.25775 -10.087769l55.366516 -352.7539z" fill-rule="evenodd"/><path fill="#ff0000" d="m1046.2021 1290.2012l-38.64142 36.701294l-25.539124 -46.776978z" fill-rule="evenodd"/><path stroke="#ff0000" stroke-width="1.0" stroke-linejoin="round" stroke-linecap="butt" d="m1046.2021 1290.2012l-38.64142 36.701294l-25.539124 -46.776978z" fill-rule="evenodd"/><path fill="#ff0000" d="m1037.3882 927.3715l38.64148 -36.701294l25.539062 46.77704z" fill-rule="evenodd"/><path stroke="#ff0000" stroke-width="1.0" stroke-linejoin="round" stroke-linecap="butt" d="m1037.3882 927.3715l38.64148 -36.701294l25.539062 46.77704z" fill-rule="evenodd"/><path fill="#ff0000" d="m1575.8068 937.4533l-55.366577 352.75385l-64.25781 -10.087769l55.366577 -352.7539z" fill-rule="evenodd"/><path stroke="#ff0000" stroke-width="1.0" stroke-linejoin="round" stroke-linecap="butt" d="m1575.8068 937.4533l-55.366577 352.75385l-64.25781 -10.087769l55.366577 -352.7539z" fill-rule="evenodd"/><path fill="#ff0000" d="m1520.4017 1290.2012l-38.6416 36.701294l-25.539062 -46.776978z" fill-rule="evenodd"/><path stroke="#ff0000" stroke-width="1.0" stroke-linejoin="round" stroke-linecap="butt" d="m1520.4017 1290.2012l-38.6416 36.701294l-25.539062 -46.776978z" fill-rule="evenodd"/><path fill="#ff0000" d="m1511.5876 927.3715l38.64148 -36.701294l25.539062 46.77704z" fill-rule="evenodd"/><path stroke="#ff0000" stroke-width="1.0" stroke-linejoin="round" stroke-linecap="butt" d="m1511.5876 927.3715l38.64148 -36.701294l25.539062 46.77704z" fill-rule="evenodd"/><path fill="#000000" fill-opacity="0.0" d="m161.89502 340.81235l1555.2756 0l0 1097.2913l-1555.2756 0z" fill-rule="evenodd"/><path stroke="#0000ff" stroke-width="8.0" stroke-linejoin="round" stroke-linecap="butt" d="m161.89502 340.81235l1555.2756 0l0 1097.2913l-1555.2756 0z" fill-rule="evenodd"/><path fill="#000000" fill-opacity="0.0" d="m596.49866 161.2546l0 179.55907" fill-rule="evenodd"/><path stroke="#0000ff" stroke-width="8.0" stroke-linejoin="round" stroke-linecap="butt" d="m596.49866 161.2546l0 179.55907" fill-rule="evenodd"/><path fill="#000000" fill-opacity="0.0" d="m779.458 161.2546l0 179.55907" fill-rule="evenodd"/><path stroke="#0000ff" stroke-width="8.0" stroke-linejoin="round" stroke-linecap="butt" d="m779.458 161.2546l0 179.55907" fill-rule="evenodd"/><path fill="#000000" fill-opacity="0.0" d="m962.4173 161.2546l0 179.55907" fill-rule="evenodd"/><path stroke="#0000ff" stroke-width="8.0" stroke-linejoin="round" stroke-linecap="butt" d="m962.4173 161.2546l0 179.55907" fill-rule="evenodd"/><path fill="#000000" fill-opacity="0.0" d="m1145.3766 161.2546l0 179.55907" fill-rule="evenodd"/><path stroke="#0000ff" stroke-width="8.0" stroke-linejoin="round" stroke-linecap="butt" d="m1145.3766 161.2546l0 179.55907" fill-rule="evenodd"/><path fill="#000000" fill-opacity="0.0" d="m1328.3359 161.2546l0 179.55907" fill-rule="evenodd"/><path stroke="#0000ff" stroke-width="8.0" stroke-linejoin="round" stroke-linecap="butt" d="m1328.3359 161.2546l0 179.55907" fill-rule="evenodd"/><path fill="#000000" fill-opacity="0.0" d="m573.6142 1438.105l0 179.55908" fill-rule="evenodd"/><path stroke="#0000ff" stroke-width="8.0" stroke-linejoin="round" stroke-linecap="butt" d="m573.6142 1438.105l0 179.55908" fill-rule="evenodd"/><path fill="#000000" fill-opacity="0.0" d="m756.5735 1438.105l0 179.55908" fill-rule="evenodd"/><path stroke="#0000ff" stroke-width="8.0" stroke-linejoin="round" stroke-linecap="butt" d="m756.5735 1438.105l0 179.55908" fill-rule="evenodd"/><path fill="#000000" fill-opacity="0.0" d="m939.53284 1438.105l0 179.55908" fill-rule="evenodd"/><path stroke="#0000ff" stroke-width="8.0" stroke-linejoin="round" stroke-linecap="butt" d="m939.53284 1438.105l0 179.55908" fill-rule="evenodd"/><path fill="#000000" fill-opacity="0.0" d="m1122.4921 1438.105l0 179.55908" fill-rule="evenodd"/><path stroke="#0000ff" stroke-width="8.0" stroke-linejoin="round" stroke-linecap="butt" d="m1122.4921 1438.105l0 179.55908" fill-rule="evenodd"/><path fill="#000000" fill-opacity="0.0" d="m1305.4514 1438.105l0 179.55908" fill-rule="evenodd"/><path stroke="#0000ff" stroke-width="8.0" stroke-linejoin="round" stroke-linecap="butt" d="m1305.4514 1438.105l0 179.55908" fill-rule="evenodd"/><path fill="#000000" fill-opacity="0.0" d="m485.90552 1602.4961l1319.1182 0l0 184.72437l-1319.1182 0z" fill-rule="evenodd"/><path fill="#0000ff" d="m578.1555 1734.3761l-11.25 0l0 -71.6875q-4.0625 3.875 -10.65625 7.75q-6.59375 3.875 -11.84375 5.8125l0 -10.875q9.4375 -4.4375 16.5 -10.75q7.0625 -6.3125 10.0 -12.25l7.25 0l0 92.0zm194.625 -10.8125l0 10.8125l-60.5625 0q-0.125 -4.0625 1.3125 -7.8125q2.3125 -6.1875 7.40625 -12.1875q5.09375 -6.0 14.71875 -13.875q14.9375 -12.25 20.1875 -19.40625q5.25 -7.15625 5.25 -13.53125q0 -6.6875 -4.78125 -11.28125q-4.78125 -4.59375 -12.46875 -4.59375q-8.125 0 -13.0 4.875q-4.875 4.875 -4.9375 13.5l-11.5625 -1.1875q1.1875 -12.9375 8.9375 -19.71875q7.75 -6.78125 20.8125 -6.78125q13.1875 0 20.875 7.3125q7.6875 7.3125 7.6875 18.125q0 5.5 -2.25 10.8125q-2.25 5.3125 -7.46875 11.1875q-5.21875 5.875 -17.34375 16.125q-10.125 8.5 -13.0 11.53125q-2.875 3.03125 -4.75 6.09375l44.9375 0zm118.8125 -13.375l11.25 -1.5q1.9375 9.5625 6.59375 13.78125q4.65625 4.21875 11.34375 4.21875q7.9375 0 13.40625 -5.5q5.46875 -5.5 5.46875 -13.625q0 -7.75 -5.0625 -12.78125q-5.0625 -5.03125 -12.875 -5.03125q-3.1875 0 -7.9375 1.25l1.25 -9.875q1.125 0.125 1.8125 0.125q7.1875 0 12.9375 -3.75q5.75 -3.75 5.75 -11.5625q0 -6.1875 -4.1875 -10.25q-4.1875 -4.0625 -10.8125 -4.0625q-6.5625 0 -10.9375 4.125q-4.375 4.125 -5.625 12.375l-11.25 -2.0q2.0625 -11.3125 9.375 -17.53125q7.3125 -6.21875 18.1875 -6.21875q7.5 0 13.8125 3.21875q6.3125 3.21875 9.65625 8.78125q3.34375 5.5625 3.34375 11.8125q0 5.9375 -3.1875 10.8125q-3.1875 4.875 -9.4375 7.75q8.125 1.875 12.625 7.78125q4.5 5.90625 4.5 14.78125q0 12.0 -8.75 20.34375q-8.75 8.34375 -22.125 8.34375q-12.0625 0 -20.03125 -7.1875q-7.96875 -7.1875 -9.09375 -18.625zm213.875 24.1875l0 -21.9375l-39.75 0l0 -10.3125l41.8125 -59.375l9.1875 0l0 59.375l12.375 0l0 10.3125l-12.375 0l0 21.9375l-11.25 0zm0 -32.25l0 -41.3125l-28.6875 41.3125l28.6875 0zm177.375 8.25l11.8125 -1.0q1.3125 8.625 6.09375 12.96875q4.78125 4.34375 11.53125 4.34375q8.125 0 13.75 -6.125q5.625 -6.125 5.625 -16.25q0 -9.625 -5.40625 -15.1875q-5.40625 -5.5625 -14.15625 -5.5625q-5.4375 0 -9.8125 2.46875q-4.375 2.46875 -6.875 6.40625l-10.5625 -1.375l8.875 -47.0625l45.5625 0l0 10.75l-36.5625 0l-4.9375 24.625q8.25 -5.75 17.3125 -5.75q12.0 0 20.25 8.3125q8.25 8.3125 8.25 21.375q0 12.4375 -7.25 21.5q-8.8125 11.125 -24.0625 11.125q-12.5 0 -20.40625 -7.0q-7.90625 -7.0 -9.03125 -18.5625z" fill-rule="nonzero"/><path fill="#000000" fill-opacity="0.0" d="m518.06036 0l1583.4961 0l0 184.72441l-1583.4961 0z" fill-rule="evenodd"/><path fill="#0000ff" d="m574.74786 131.88l-11.25 0l0 -71.6875q-4.0625 3.875 -10.65625 7.75q-6.59375 3.875 -11.84375 5.8125l0 -10.875q9.4375 -4.4375 16.5 -10.75q7.0625 -6.3125 10.0 -12.25l7.25 0l0 92.0zm28.8125 -45.1875q0 -16.25 3.34375 -26.15625q3.34375 -9.90625 9.9375 -15.28125q6.59375 -5.375 16.59375 -5.375q7.375 0 12.9375 2.96875q5.5625 2.96875 9.1875 8.5625q3.625 5.59375 5.6875 13.625q2.0625 8.03125 2.0625 21.65625q0 16.125 -3.3125 26.03125q-3.3125 9.90625 -9.90625 15.3125q-6.59375 5.40625 -16.65625 5.40625q-13.25 0 -20.8125 -9.5q-9.0625 -11.4375 -9.0625 -37.25zm11.5625 0q0 22.5625 5.28125 30.03125q5.28125 7.46875 13.03125 7.46875q7.75 0 13.03125 -7.5q5.28125 -7.5 5.28125 -30.0q0 -22.625 -5.28125 -30.0625q-5.28125 -7.4375 -13.15625 -7.4375q-7.75 0 -12.375 6.5625q-5.8125 8.375 -5.8125 30.9375zm132.4375 24.0l10.8125 -1.0q1.375 7.625 5.25 11.0625q3.875 3.4375 9.9375 3.4375q5.1875 0 9.09375 -2.375q3.90625 -2.375 6.40625 -6.34375q2.5 -3.96875 4.1875 -10.71875q1.6875 -6.75 1.6875 -13.75q0 -0.75 -0.0625 -2.25q-3.375 5.375 -9.21875 8.71875q-5.84375 3.34375 -12.65625 3.34375q-11.375 0 -19.25 -8.25q-7.875 -8.25 -7.875 -21.75q0 -13.9375 8.21875 -22.4375q8.21875 -8.5 20.59375 -8.5q8.9375 0 16.34375 4.8125q7.40625 4.8125 11.25 13.71875q3.84375 8.90625 3.84375 25.78125q0 17.5625 -3.8125 27.96875q-3.8125 10.40625 -11.34375 15.84375q-7.53125 5.4375 -17.65625 5.4375q-10.75 0 -17.5625 -5.96875q-6.8125 -5.96875 -8.1875 -16.78125zm46.0625 -40.4375q0 -9.6875 -5.15625 -15.375q-5.15625 -5.6875 -12.40625 -5.6875q-7.5 0 -13.0625 6.125q-5.5625 6.125 -5.5625 15.875q0 8.75 5.28125 14.21875q5.28125 5.46875 13.03125 5.46875q7.8125 0 12.84375 -5.46875q5.03125 -5.46875 5.03125 -15.15625zm147.4375 11.9375q-7.0 -2.5625 -10.375 -7.3125q-3.375 -4.75 -3.375 -11.375q0 -10.0 7.1875 -16.8125q7.1875 -6.8125 19.125 -6.8125q12.0 0 19.3125 6.96875q7.3125 6.96875 7.3125 16.96875q0 6.375 -3.34375 11.09375q-3.34375 4.71875 -10.15625 7.28125q8.4375 2.75 12.84375 8.875q4.40625 6.125 4.40625 14.625q0 11.75 -8.3125 19.75q-8.3125 8.0 -21.875 8.0q-13.5625 0 -21.875 -8.03125q-8.3125 -8.03125 -8.3125 -20.03125q0 -8.9375 4.53125 -14.96875q4.53125 -6.03125 12.90625 -8.21875zm-2.25 -19.0625q0 6.5 4.1875 10.625q4.1875 4.125 10.875 4.125q6.5 0 10.65625 -4.09375q4.15625 -4.09375 4.15625 -10.03125q0 -6.1875 -4.28125 -10.40625q-4.28125 -4.21875 -10.65625 -4.21875q-6.4375 0 -10.6875 4.125q-4.25 4.125 -4.25 9.875zm-3.625 42.3125q0 4.8125 2.28125 9.3125q2.28125 4.5 6.78125 6.96875q4.5 2.46875 9.6875 2.46875q8.0625 0 13.3125 -5.1875q5.25 -5.1875 5.25 -13.1875q0 -8.125 -5.40625 -13.4375q-5.40625 -5.3125 -13.53125 -5.3125q-7.9375 0 -13.15625 5.25q-5.21875 5.25 -5.21875 13.125zm167.18756 -53.1875l0 -10.8125l59.3125 0l0 8.75q-8.75 9.3125 -17.34375 24.75q-8.59375 15.4375 -13.28125 31.75q-3.375 11.5 -4.3125 25.1875l-11.5625 0q0.1875 -10.8125 4.25 -26.125q4.0625 -15.3125 11.65625 -29.53125q7.59375 -14.21875 16.15625 -23.96875l-44.875 0zm235.5 10.4375l-11.1875 0.875q-1.5 -6.625 -4.25 -9.625q-4.5625 -4.8125 -11.25 -4.8125q-5.375 0 -9.4375 3.0q-5.3125 3.875 -8.375 11.3125q-3.0625 7.4375 -3.1875 21.1875q4.0625 -6.1875 9.9375 -9.1875q5.875 -3.0 12.3125 -3.0q11.25 0 19.15625 8.28125q7.90625 8.28125 7.90625 21.40625q0 8.625 -3.71875 16.03125q-3.71875 7.40625 -10.21875 11.34375q-6.5 3.9375 -14.75 3.9375q-14.0625 0 -22.9375 -10.34375q-8.875 -10.34375 -8.875 -34.09375q0 -26.5625 9.8125 -38.625q8.5625 -10.5 23.0625 -10.5q10.8125 0 17.71875 6.0625q6.90625 6.0625 8.28125 16.75zm-45.9375 39.5q0 5.8125 2.46875 11.125q2.46875 5.3125 6.90625 8.09375q4.4375 2.78125 9.3125 2.78125q7.125 0 12.25 -5.75q5.125 -5.75 5.125 -15.625q0 -9.5 -5.0625 -14.96875q-5.0625 -5.46875 -12.75 -5.46875q-7.625 0 -12.9375 5.46875q-5.3125 5.46875 -5.3125 14.34375z" fill-rule="nonzero"/><path fill="#000000" fill-opacity="0.0" d="m1328.6431 380.1391l118.11023 0l0 121.79529l-118.11023 0z" fill-rule="evenodd"/><path fill="#000000" d="m1364.2056 441.42285l0 -7.3125q-2.28125 0.1875 -4.9375 0.515625q-2.65625 0.328125 -4.03125 0.765625q-1.6875 0.53125 -2.578125 1.546875q-0.890625 1.015625 -0.890625 2.671875q0 1.09375 0.1875 1.78125q0.1875 0.6875 0.9375 1.3125q0.71875 0.625 1.71875 0.921875q1.0 0.296875 3.125 0.296875q1.6875 0 3.421875 -0.6875q1.734375 -0.6875 3.046875 -1.8125zm0 5.4375q-0.90625 0.6875 -2.25 1.65625q-1.34375 0.96875 -2.53125 1.53125q-1.65625 0.75 -3.4375 1.109375q-1.78125 0.359375 -3.90625 0.359375q-5.0 0 -8.375 -3.09375q-3.375 -3.09375 -3.375 -7.90625q0 -3.84375 1.71875 -6.28125q1.71875 -2.4375 4.875 -3.84375q3.125 -1.40625 7.75 -2.0q4.625 -0.59375 9.59375 -0.875l0 -0.1875q0 -2.90625 -2.375 -4.015625q-2.375 -1.109375 -7.0 -1.109375q-2.78125 0 -5.9375 0.984375q-3.15625 0.984375 -4.53125 1.515625l-1.03125 0l0 -8.46875q1.78125 -0.46875 5.796875 -1.109375q4.015625 -0.640625 8.046875 -0.640625q9.59375 0 13.859375 2.953125q4.265625 2.953125 4.265625 9.265625l0 23.875l-11.15625 0l0 -3.71875z" fill-rule="nonzero"/><path fill="#000000" fill-opacity="0.0" d="m1551.3202 573.29395l118.11023 0l0 121.79529l-118.11023 0z" fill-rule="evenodd"/><path fill="#000000" d="m1602.2577 625.7027q0 8.28125 -4.578125 13.5q-4.578125 5.21875 -11.421875 5.21875q-2.9375 0 -5.15625 -0.625q-2.21875 -0.625 -4.21875 -1.8125l-0.46875 1.75l-10.78125 0l0 -48.625l11.25 0l0 17.1875q2.59375 -2.0625 5.296875 -3.34375q2.703125 -1.28125 6.234375 -1.28125q6.65625 0 10.25 4.796875q3.59375 4.796875 3.59375 13.234375zm-11.59375 0.21875q0 -4.6875 -1.59375 -7.21875q-1.59375 -2.53125 -5.6875 -2.53125q-1.59375 0 -3.28125 0.484375q-1.6875 0.484375 -3.21875 1.390625l0 17.625q1.21875 0.4375 2.3125 0.59375q1.09375 0.15625 2.625 0.15625q4.46875 0 6.65625 -2.625q2.1875 -2.625 2.1875 -7.875z" fill-rule="nonzero"/><path fill="#000000" fill-opacity="0.0" d="m1482.4384 1021.09973l118.11023 0l0 121.79529l-118.11023 0z" fill-rule="evenodd"/><path fill="#000000" d="m1515.0321 1092.4773q-4.59375 0 -8.390625 -1.09375q-3.796875 -1.09375 -6.609375 -3.375q-2.78125 -2.28125 -4.3125 -5.75q-1.53125 -3.46875 -1.53125 -8.125q0 -4.90625 1.640625 -8.46875q1.640625 -3.5625 4.578125 -5.90625q2.84375 -2.21875 6.5625 -3.25q3.71875 -1.03125 7.71875 -1.03125q3.59375 0 6.625 0.78125q3.03125 0.78125 5.65625 2.03125l0 9.59375l-1.59375 0q-0.65625 -0.5625 -1.578125 -1.3125q-0.921875 -0.75 -2.265625 -1.46875q-1.28125 -0.6875 -2.8125 -1.140625q-1.53125 -0.453125 -3.5625 -0.453125q-4.5 0 -6.921875 2.859375q-2.421875 2.859375 -2.421875 7.765625q0 5.0625 2.484375 7.6875q2.484375 2.625 7.046875 2.625q2.125 0 3.828125 -0.484375q1.703125 -0.484375 2.828125 -1.140625q1.0625 -0.625 1.875 -1.3125q0.8125 -0.6875 1.5 -1.34375l1.59375 0l0 9.59375q-2.65625 1.25 -5.546875 1.984375q-2.890625 0.734375 -6.390625 0.734375z" fill-rule="nonzero"/><path fill="#000000" fill-opacity="0.0" d="m1210.5328 1280.6876l118.11023 0l0 121.79529l-118.11023 0z" fill-rule="evenodd"/><path fill="#000000" d="m1258.9703 1351.1277l-11.25 0l0 -3.65625q-2.90625 2.375 -5.4375 3.5q-2.53125 1.125 -5.84375 1.125q-6.40625 0 -10.25 -4.9375q-3.84375 -4.9375 -3.84375 -13.3125q0 -4.46875 1.296875 -7.921875q1.296875 -3.453125 3.546875 -5.921875q2.125 -2.34375 5.15625 -3.640625q3.03125 -1.296875 6.0625 -1.296875q3.15625 0 5.171875 0.671875q2.015625 0.671875 4.140625 1.703125l0 -14.9375l11.25 0l0 48.625zm-11.25 -9.6875l0 -17.21875q-1.1875 -0.5 -2.5 -0.71875q-1.3125 -0.21875 -2.40625 -0.21875q-4.4375 0 -6.65625 2.765625q-2.21875 2.765625 -2.21875 7.671875q0 5.15625 1.78125 7.484375q1.78125 2.328125 5.71875 2.328125q1.53125 0 3.25 -0.578125q1.71875 -0.578125 3.03125 -1.515625z" fill-rule="nonzero"/><path fill="#000000" fill-opacity="0.0" d="m1005.12335 1021.09973l118.11029 0l0 121.79529l-118.11029 0z" fill-rule="evenodd"/><path fill="#000000" d="m1053.9984 1076.071l-25.75 0q0.25 4.125 3.140625 6.3125q2.890625 2.1875 8.515625 2.1875q3.5625 0 6.90625 -1.28125q3.34375 -1.28125 5.28125 -2.75l1.25 0l0 9.03125q-3.8125 1.53125 -7.1875 2.21875q-3.375 0.6875 -7.46875 0.6875q-10.5625 0 -16.187561 -4.75q-5.625 -4.75 -5.625 -13.53125q0 -8.6875 5.328125 -13.765625q5.328186 -5.078125 14.609436 -5.078125q8.5625 0 12.875 4.328125q4.3125 4.328125 4.3125 12.453125l0 3.9375zm-11.1875 -6.59375q-0.09375 -3.53125 -1.75 -5.3125q-1.65625 -1.78125 -5.15625 -1.78125q-3.25 0 -5.34375 1.6875q-2.09375 1.6875 -2.34375 5.40625l14.59375 0z" fill-rule="nonzero"/><path fill="#000000" fill-opacity="0.0" d="m1086.4094 573.29395l118.11023 0l0 121.79529l-118.11023 0z" fill-rule="evenodd"/><path fill="#000000" d="m1123.4719 603.35895l-0.84375 0q-0.75 -0.21875 -1.953125 -0.5q-1.203125 -0.28125 -2.578125 -0.28125q-3.3125 0 -4.484375 1.1875q-1.171875 1.1875 -1.171875 4.59375l0 0.28125l8.6875 0l0 7.625l-8.3125 0l0 27.46875l-11.25 0l0 -27.46875l-4.8125 0l0 -7.625l4.8125 0l0 -0.96875q0 -6.4375 3.421875 -9.65625q3.421875 -3.21875 10.359375 -3.21875q2.5 0 4.53125 0.171875q2.03125 0.171875 3.59375 0.453125l0 7.9375z" fill-rule="nonzero"/><path fill="#000000" fill-opacity="0.0" d="m1276.5853 830.41205l118.11023 0l0 121.79529l-118.11023 0z" fill-rule="evenodd"/><path fill="#000000" d="m1325.0228 896.8208q0 4.9375 -1.40625 8.3125q-1.40625 3.375 -3.9375 5.28125q-2.53125 1.9375 -6.109375 2.796875q-3.578125 0.859375 -8.078125 0.859375q-3.65625 0 -7.203125 -0.4375q-3.546875 -0.4375 -6.140625 -1.0625l0 -8.78125l1.375 0q2.0625 0.8125 5.03125 1.484375q2.96875 0.671875 5.3125 0.671875q3.125 0 5.078125 -0.578125q1.953125 -0.578125 2.984375 -1.640625q0.96875 -1.0 1.40625 -2.5625q0.4375 -1.5625 0.4375 -3.75l0 -0.65625q-2.03125 1.65625 -4.5 2.625q-2.46875 0.96875 -5.5 0.96875q-7.375 0 -11.375 -4.4375q-4.0 -4.4375 -4.0 -13.5q0 -4.34375 1.21875 -7.5q1.21875 -3.15625 3.4375 -5.5q2.0625 -2.1875 5.078125 -3.40625q3.015625 -1.21875 6.171875 -1.21875q2.84375 0 5.171875 0.671875q2.328125 0.671875 4.234375 1.859375l0.40625 -1.5625l10.90625 0l0 31.0625zm-11.25 -7.03125l0 -15.90625q-0.96875 -0.40625 -2.375 -0.640625q-1.40625 -0.234375 -2.53125 -0.234375q-4.4375 0 -6.65625 2.546875q-2.21875 2.546875 -2.21875 7.109375q0 5.0625 1.890625 7.0625q1.890625 2.0 5.609375 2.0q1.6875 0 3.3125 -0.53125q1.625 -0.53125 2.96875 -1.40625z" fill-rule="nonzero"/></g></svg>